<svg xmlns="http://www.w3.org/2000/svg" width="119" height="119" viewBox="0 0 119 119">
  <g id="Group_7256" data-name="Group 7256" transform="translate(-687 -355)">
    <g id="Ellipse_62" data-name="Ellipse 62" transform="translate(687 355)" fill="#fff" stroke="#a4afb7" stroke-width="1">
      <circle cx="59.5" cy="59.5" r="59.5" stroke="none"/>
      <circle cx="59.5" cy="59.5" r="59" fill="none"/>
    </g>
    <g id="Group_7245" data-name="Group 7245" transform="translate(721.668 386.968)">
      <g id="contract_1_" data-name="contract (1)" transform="translate(0 0)">
        <path id="Path_7036" data-name="Path 7036" d="M225.6,98.1a2.8,2.8,0,0,0-5.138-.673l-.467.813a.934.934,0,0,0-1.27.337l-2.373,4.044-.813-.467a.933.933,0,1,0-.934,1.616l.813.467-7.94,13.759-1.962,5.241-.934,1.746a2.8,2.8,0,0,0,.15,3.027l-2.1,2.578-.588-1.476a1.868,1.868,0,0,0-3.335-.262l-.336.57-.317-3.736a1.868,1.868,0,0,0-3.634-.439l-2.3,6.894a.934.934,0,0,0,.588,1.177.808.808,0,0,0,.29.074.934.934,0,0,0,.888-.635l2.288-6.894.327,3.792a1.868,1.868,0,0,0,3.466.8l.346-.57.579,1.467a1.868,1.868,0,0,0,3.195.476l2.177-2.755a2.878,2.878,0,0,0,.738.094,2.8,2.8,0,0,0,2.438-1.383l.934-1.56,3.559-4.325,8.024-13.928.813.467a.937.937,0,0,1,.346,1.28l-3.736,6.474a.927.927,0,1,0,1.579.972l3.736-6.474a2.8,2.8,0,0,0-1.028-3.83l-.813-.467,2.335-4.045a.934.934,0,0,0-.336-1.27l.467-.813a2.8,2.8,0,0,0,.28-2.167Zm-3.522.261a.934.934,0,0,1,.57-.439.981.981,0,0,1,.71.094.935.935,0,0,1,.439.57.981.981,0,0,1-.094.71l-.467.813-1.626-.934Zm-12.732,26.081-.467-.271-1.382-.8,1.326-3.549,2.942,1.7Zm-2.8,2.7a.934.934,0,0,1-.28-1.224l.467-.812,1.625.934-.467.8a.934.934,0,0,1-1.345.3Zm6.287-7.155-3.232-1.868,7.473-12.947,3.232,1.868Zm8.407-14.563-3.232-1.868,1.868-3.232,3.232,1.868Zm0,0" transform="translate(-169.649 -84.812)" fill="#a4afb7"/>
        <path id="Path_7037" data-name="Path 7037" d="M74.193,356.821l-3.306,3.3-1.98-1.98a.935.935,0,1,0-1.317,1.326l1.98,1.98a1.883,1.883,0,0,0,2.644,0l3.3-3.307a.934.934,0,0,0-1.317-1.317Zm0,0" transform="translate(-59.453 -314.963)" fill="#a4afb7"/>
        <path id="Path_7038" data-name="Path 7038" d="M32,319.981a7.94,7.94,0,1,0,15.88,0,.934.934,0,0,0-1.868,0,6.072,6.072,0,1,1-2.429-4.857.934.934,0,0,0,1.121-1.495A7.94,7.94,0,0,0,32,319.981Zm0,0" transform="translate(-28.264 -275.611)" fill="#a4afb7"/>
        <path id="Path_7039" data-name="Path 7039" d="M97.221,49.907a.934.934,0,0,0,0-1.868H72.934a.934.934,0,0,0-.934.934V52.71a.934.934,0,0,0,.934.934H97.221a.934.934,0,1,0,0-1.868H73.868V49.907Zm0,0" transform="translate(-63.593 -42.434)" fill="#a4afb7"/>
        <path id="Path_7040" data-name="Path 7040" d="M96.934,112.039a.934.934,0,1,0,0,1.868h18.682a.934.934,0,1,0,0-1.868Zm0,0" transform="translate(-84.791 -98.961)" fill="#a4afb7"/>
        <path id="Path_7041" data-name="Path 7041" d="M149.485,168.039h-20.55a.934.934,0,1,0,0,1.868h20.55a.934.934,0,1,0,0-1.868Zm0,0" transform="translate(-113.054 -148.423)" fill="#a4afb7"/>
        <path id="Path_7042" data-name="Path 7042" d="M76.55,216.973a.934.934,0,0,0-.934-.934H56.934a.934.934,0,1,0,0,1.868H75.616A.934.934,0,0,0,76.55,216.973Zm0,0" transform="translate(-49.461 -190.818)" fill="#a4afb7"/>
        <path id="Path_7043" data-name="Path 7043" d="M255.473,216.039h-6.539a.934.934,0,0,0,0,1.868h6.539a.934.934,0,1,0,0-1.868Zm0,0" transform="translate(-219.043 -190.818)" fill="#a4afb7"/>
        <path id="Path_7044" data-name="Path 7044" d="M66.275,257.907a.934.934,0,1,0,0-1.868H56.934a.934.934,0,0,0,0,1.868Zm0,0" transform="translate(-49.461 -226.147)" fill="#a4afb7"/>
        <path id="Path_7045" data-name="Path 7045" d="M168.934,257.907h6.539a.934.934,0,1,0,0-1.868h-6.539a.934.934,0,1,0,0,1.868Zm0,0" transform="translate(-148.384 -226.147)" fill="#a4afb7"/>
        <path id="Path_7046" data-name="Path 7046" d="M42.035,43.008a.934.934,0,0,0-.934.934v9.341a.934.934,0,0,1-.934.934H2.8a.934.934,0,0,1-.934-.934V2.841A.934.934,0,0,1,2.8,1.907H40.167a.934.934,0,0,1,.934.934V20.384a.934.934,0,1,0,1.868,0V2.841a2.8,2.8,0,0,0-2.8-2.8H2.8A2.8,2.8,0,0,0,0,2.841V53.283a2.8,2.8,0,0,0,2.8,2.8H40.167a2.8,2.8,0,0,0,2.8-2.8V43.942A.934.934,0,0,0,42.035,43.008Zm0,0" transform="translate(0 -0.039)" fill="#a4afb7"/>
      </g>
    </g>
  </g>
</svg>
