<svg xmlns="http://www.w3.org/2000/svg" width="119" height="119" viewBox="0 0 119 119">
  <g id="Group_7259" data-name="Group 7259" transform="translate(-480 -355)">
    <g id="Ellipse_61" data-name="Ellipse 61" transform="translate(480 355)" fill="#fff" stroke="#77a841" stroke-width="1">
      <circle cx="59.5" cy="59.5" r="59.5" stroke="none"/>
      <circle cx="59.5" cy="59.5" r="59" fill="none"/>
    </g>
    <g id="document" transform="translate(509.422 385.789)">
      <path id="Path_7060" data-name="Path 7060" d="M39.087,80h-28.2a4.7,4.7,0,0,0-4.7,4.7v29.139a.94.94,0,1,0,1.88,0V84.7a2.82,2.82,0,0,1,2.82-2.82h28.2a2.82,2.82,0,0,1,2.82,2.82v39.479a2.82,2.82,0,1,1-5.64,0v-4.7a1.88,1.88,0,0,0-1.88-1.88H.548a1.88,1.88,0,0,0-1.88,1.88v4.7a4.7,4.7,0,0,0,4.7,4.7H39.087a4.7,4.7,0,0,0,4.7-4.7V84.7A4.7,4.7,0,0,0,39.087,80ZM3.368,127a2.82,2.82,0,0,1-2.82-2.82v-4.7H34.387v4.7a4.7,4.7,0,0,0,.94,2.82Zm0,0" transform="translate(1.332 -72.48)" fill="#77a841"/>
      <path id="Path_7061" data-name="Path 7061" d="M224.648,181.88a.94.94,0,1,0,0-1.88h-15.04a.94.94,0,1,0,0,1.88Zm0,0" transform="translate(-188.928 -163.08)" fill="#77a841"/>
      <path id="Path_7062" data-name="Path 7062" d="M158.668,240.94a.94.94,0,0,0,.94.94h19.74a.94.94,0,1,0,0-1.88h-19.74A.94.94,0,0,0,158.668,240.94Zm0,0" transform="translate(-143.628 -217.441)" fill="#77a841"/>
      <path id="Path_7063" data-name="Path 7063" d="M159.608,301.88h19.74a.94.94,0,1,0,0-1.88h-19.74a.94.94,0,1,0,0,1.88Zm0,0" transform="translate(-143.628 -271.801)" fill="#77a841"/>
      <path id="Path_7064" data-name="Path 7064" d="M159.608,361.88h19.74a.94.94,0,1,0,0-1.88h-19.74a.94.94,0,1,0,0,1.88Zm0,0" transform="translate(-143.628 -326.161)" fill="#77a841"/>
      <path id="Path_7065" data-name="Path 7065" d="M159.608,421.88h15.98a.94.94,0,0,0,0-1.88h-15.98a.94.94,0,0,0,0,1.88Zm0,0" transform="translate(-143.628 -380.521)" fill="#77a841"/>
      <path id="Path_7066" data-name="Path 7066" d="M191.567,0h-28.2a4.7,4.7,0,0,0-4.7,4.7.94.94,0,0,0,1.88,0,2.82,2.82,0,0,1,2.82-2.82h28.2a2.82,2.82,0,0,1,2.82,2.82V44.179a2.82,2.82,0,0,1-2.82,2.82.94.94,0,0,0,0,1.88,4.7,4.7,0,0,0,4.7-4.7V4.7A4.7,4.7,0,0,0,191.567,0Zm0,0" transform="translate(-143.628)" fill="#77a841"/>
    </g>
  </g>
</svg>
