<svg xmlns="http://www.w3.org/2000/svg" xmlns:xlink="http://www.w3.org/1999/xlink" width="200" height="34.803" viewBox="0 0 200 34.803">
  <defs>
    <clipPath id="clip-logo">
      <rect width="200" height="34.803"/>
    </clipPath>
  </defs>
  <g id="logo" clip-path="url(#clip-logo)">
    <rect width="200" height="34.803" fill="#fff"/>
    <g id="Group_7686" data-name="Group 7686" transform="translate(5 -142.543)">
      <g id="Group_7687" data-name="Group 7687" transform="translate(-4 146.604)">
        <path id="Path_10558" data-name="Path 10558" d="M13.159,189.549l2.589-14.583a2.029,2.029,0,0,0,.043-.388v-.346q0-1.553-1.424-1.553H10.1q-2.071,0-2.459,2.329l-2.546,14.54H0l3.883-22.133H16.611q4.487,0,4.487,4.746a13.038,13.038,0,0,1-.259,2.459l-2.632,14.928Z" transform="translate(0 -159.866)" fill="#1564a9"/>
        <path id="Path_10559" data-name="Path 10559" d="M67.508,189.549q-5.953,0-5.953-5.264a7.968,7.968,0,0,1,.064-.992q.064-.517.151-1.122l1.294-7.378q1.294-7.378,8.327-7.378h3.451q5.955,0,5.954,5.264a8.044,8.044,0,0,1-.065.992q-.065.518-.151,1.121l-.992,5.7H67.077l-.259,1.553c-.03.144-.051.274-.065.388a2.734,2.734,0,0,0-.021.345q0,1.553,1.682,1.553h9.88l-.906,5.221Zm8.24-14.885a1.927,1.927,0,0,0,.043-.367v-.324q0-1.638-1.726-1.64H70.529a2.171,2.171,0,0,0-1.64.583,3.343,3.343,0,0,0-.777,1.748l-.345,1.812H75.4Z" transform="translate(-38.947 -159.866)" fill="#1564a9"/>
        <path id="Path_10560" data-name="Path 10560" d="M123.022,189.549l-2.5-7.162-5.134,7.162h-5.437l8.8-11.261-4.185-10.873h5.911l2.5,7.033,5-7.033h5.177L124.7,178.289l4.444,11.261Z" transform="translate(-69.566 -159.866)" fill="#1564a9"/>
        <path id="Path_10561" data-name="Path 10561" d="M177.067,176.543q-5.565,0-5.565-5.221c0-.345.014-.7.043-1.079a10.008,10.008,0,0,1,.173-1.208l3.883-22.177h5.177l-1.337,7.55h4.616l-.776,4.4h-4.617l-1.812,10.4c-.029.144-.05.281-.064.41a3.656,3.656,0,0,0-.022.41,1.507,1.507,0,0,0,1.683,1.726h2.5l-.862,4.789Z" transform="translate(-108.512 -146.859)" fill="#1564a9"/>
      </g>
      <g id="Group_7690" data-name="Group 7690" transform="translate(77.136 143.543)">
        <path id="Path_10562" data-name="Path 10562" d="M242.454,189.549l2.589-14.583a2.028,2.028,0,0,0,.043-.388v-.346q0-1.553-1.424-1.553h-4.271q-2.071,0-2.459,2.329l-2.546,14.54h-5.091l3.883-22.133h12.728q4.487,0,4.487,4.746a13.037,13.037,0,0,1-.259,2.459L247.5,189.549Z" transform="translate(-220.623 -156.804)" fill="#77a841"/>
        <path id="Path_10563" data-name="Path 10563" d="M295.236,189.549l-2.977-22.133h5.608l1.381,14.928,6.688-14.928h5.393l-10.786,22.133Z" transform="translate(-260.462 -156.804)" fill="#77a841"/>
        <path id="Path_10564" data-name="Path 10564" d="M346.708,189.549a7.278,7.278,0,0,1-4.7-1.229,4.818,4.818,0,0,1-1.467-3.905A13.335,13.335,0,0,1,340.8,182l1.251-7.033a13.787,13.787,0,0,1,1.014-3.43,6.934,6.934,0,0,1,1.7-2.351,6.557,6.557,0,0,1,2.481-1.337,11.717,11.717,0,0,1,3.344-.432h3.581a7.281,7.281,0,0,1,4.7,1.23,4.818,4.818,0,0,1,1.467,3.9,10.963,10.963,0,0,1-.065,1.165q-.065.6-.151,1.251L358.874,182a10.142,10.142,0,0,1-2.654,5.674,7.641,7.641,0,0,1-5.5,1.876Zm8.284-14.626c.028-.144.05-.273.065-.388a2.84,2.84,0,0,0,.022-.345q0-1.509-1.6-1.51h-4.056a2.162,2.162,0,0,0-2.243,2.071l-1.252,7.334c-.029.144-.051.28-.065.41a3.249,3.249,0,0,0-.022.367,1.316,1.316,0,0,0,1.51,1.467h4.056a2.184,2.184,0,0,0,2.287-2.071Z" transform="translate(-291.008 -156.804)" fill="#77a841"/>
        <path id="Path_10565" data-name="Path 10565" d="M396.688,175.577l3.883-22.133h5.178l-3.883,22.133Zm4.4-25.067.95-5.177h5.177l-.949,5.177Z" transform="translate(-326.535 -142.832)" fill="#77a841"/>
        <path id="Path_10566" data-name="Path 10566" d="M205.685,189.549l3.883-22.134h5.177l-3.883,22.134Z" transform="translate(-205.685 -156.804)" fill="#77a841"/>
        <path id="Path_10567" data-name="Path 10567" d="M225.955,145.332l-1.283,7.384h-7.01l.254-1.456c3.49-.885,6.031-3.184,6.255-5.928Z" transform="translate(-214.899 -145.332)" fill="#77a841"/>
        <path id="Path_10568" data-name="Path 10568" d="M429.541,189.549q-5.953,0-5.954-5.264a7.963,7.963,0,0,1,.065-.992q.064-.517.151-1.122l1.294-7.292q1.294-7.463,8.327-7.464h7.723l-.906,5.264h-7.593q-2.071,0-2.459,2.372l-1.208,6.99c-.029.144-.051.274-.065.388a2.733,2.733,0,0,0-.022.345q0,1.553,1.683,1.553h7.679l-.906,5.221Z" transform="translate(-343.554 -156.804)" fill="#77a841"/>
        <path id="Path_10569" data-name="Path 10569" d="M478.642,189.549q-5.954,0-5.954-5.264a7.9,7.9,0,0,1,.065-.992q.064-.517.151-1.122l1.295-7.378q1.294-7.378,8.326-7.378h3.452q5.954,0,5.954,5.264a8.114,8.114,0,0,1-.064.992q-.065.518-.152,1.121l-.992,5.7H478.21l-.259,1.553c-.029.144-.051.274-.065.388a2.732,2.732,0,0,0-.021.345q0,1.553,1.682,1.553h9.88l-.906,5.221Zm8.24-14.885a1.9,1.9,0,0,0,.044-.367v-.324q0-1.638-1.726-1.64h-3.538a2.171,2.171,0,0,0-1.64.583,3.34,3.34,0,0,0-.777,1.748l-.345,1.812h7.637Z" transform="translate(-374.621 -156.804)" fill="#77a841"/>
      </g>
    </g>
  </g>
</svg>
