<svg id="Nextinvoice-11-11" xmlns="http://www.w3.org/2000/svg" width="525.08" height="82.35" viewBox="0 0 525.08 82.35">
  <path id="Path_1" data-name="Path 1" d="M35.83,82.34l7-39.71A5.56,5.56,0,0,0,43,41.58v-.94q0-4.23-3.88-4.23H27.49q-5.64,0-6.7,6.34L13.86,82.34H0L10.57,22.08H45.22q12.22,0,12.22,12.92a35.44,35.44,0,0,1-.7,6.7L49.57,82.34Z" fill="#6c757d"/>
  <path id="Path_2" data-name="Path 2" d="M77.76,82.34Q61.55,82.34,61.55,68a21.62,21.62,0,0,1,.18-2.7q.17-1.41.41-3.05l3.52-20.09q3.52-20.09,22.67-20.09h9.4q16.21,0,16.21,14.33a22,22,0,0,1-.18,2.7q-.18,1.41-.41,3.05l-2.7,15.51H76.59l-.7,4.23c-.08.39-.14.74-.18,1.06a7.429,7.429,0,0,0-.06.94q0,4.23,4.58,4.23h26.9l-2.47,14.21H77.76ZM100.2,41.82a5.23,5.23,0,0,0,.12-1v-.88q0-4.46-4.7-4.46H86a5.91,5.91,0,0,0-4.46,1.59,9.1,9.1,0,0,0-2.12,4.76l-.94,4.93H99.26Z" fill="#6c757d"/>
  <path id="Path_3" data-name="Path 3" d="M145.54,82.34l-6.81-19.5-14,19.5h-14.8l24-30.66-11.39-29.6h16.09l6.81,19.15,13.63-19.15h14.1l-23,29.6,12.1,30.66Z" fill="#6c757d"/>
  <path id="Path_4" data-name="Path 4" d="M186.66,82.34q-15.15,0-15.15-14.21,0-1.41.12-2.94a27.32,27.32,0,0,1,.47-3.29L182.66,1.53h14.1l-3.64,20.56h12.57l-2.11,12H191L186.07,62.4q-.12.59-.18,1.12a9.922,9.922,0,0,0-.06,1.12q0,4.7,4.58,4.7h6.81l-2.35,13h-8.22Z" fill="#6c757d"/>
  <path id="Path_5" data-name="Path 5" d="M204.28,82.34,218.84,0h14.57L218.84,82.34Z" fill="#6c757d"/>
  <path id="Path_6" data-name="Path 6" d="M265.12,82.34l7-39.71a5.556,5.556,0,0,0,.12-1.06v-.93q0-4.23-3.88-4.23H256.78q-5.64,0-6.7,6.34l-6.93,39.59H229.3l10.57-60.26h34.65q12.22,0,12.22,12.92a35.44,35.44,0,0,1-.7,6.7l-7.17,40.64Z" fill="#6c757d"/>
  <path id="Path_7" data-name="Path 7" d="M300.36,82.34l-8.1-60.26h15.27l3.76,40.64L329.5,22.08h14.68L314.81,82.34Z" fill="#6c757d"/>
  <path id="Path_8" data-name="Path 8" d="M357.34,82.34q-8.81,0-12.81-3.35t-4-10.63a36.319,36.319,0,0,1,.7-6.58l3.41-19.15a37.55,37.55,0,0,1,2.76-9.34A18.879,18.879,0,0,1,352,26.9a17.85,17.85,0,0,1,6.75-3.64,31.91,31.91,0,0,1,9.1-1.18h9.75q8.81,0,12.8,3.35t4,10.63a29.977,29.977,0,0,1-.18,3.17q-.18,1.65-.41,3.41L390.4,61.79q-1.88,10.34-7.22,15.45t-15,5.11H357.34Zm22.55-39.82c.08-.39.14-.74.18-1.06a7.738,7.738,0,0,0,.06-.94q0-4.11-4.35-4.11h-11q-5.05,0-6.11,5.64l-3.41,20c-.08.39-.14.76-.18,1.12a8.832,8.832,0,0,0-.06,1q0,4,4.11,4h11q5.17,0,6.23-5.64Z" fill="#6c757d"/>
  <path id="Path_9" data-name="Path 9" d="M396.69,82.34l10.57-60.26h14.1L410.78,82.34h-14.1Zm12-68.25L411.25,0h14.1l-2.59,14.1h-14.1Z" fill="#6c757d"/>
  <path id="Path_10" data-name="Path 10" d="M439.8,82.34q-16.21,0-16.21-14.33a21.613,21.613,0,0,1,.18-2.7q.17-1.41.41-3.05L427.7,42.4q3.52-20.32,22.67-20.32h21L468.9,36.41H448.26q-5.64,0-6.7,6.46l-3.29,19c-.08.39-.14.74-.18,1.06a7.441,7.441,0,0,0-.06.94q0,4.23,4.58,4.23h20.91l-2.47,14.21H439.8Z" fill="#6c757d"/>
  <path id="Path_11" data-name="Path 11" d="M488.9,82.34q-16.21,0-16.21-14.33a21.613,21.613,0,0,1,.18-2.7q.17-1.41.41-3.05l3.52-20.09q3.52-20.09,22.67-20.09h9.4q16.21,0,16.21,14.33a22.017,22.017,0,0,1-.18,2.7q-.18,1.41-.41,3.05l-2.7,15.51H487.72L487,61.91c-.08.39-.14.74-.18,1.06a7.441,7.441,0,0,0-.06.94q0,4.23,4.58,4.23h26.9l-2.44,14.2Zm22.44-40.53a5.231,5.231,0,0,0,.12-1v-.87q0-4.46-4.7-4.46h-9.63a5.91,5.91,0,0,0-4.46,1.59,9.1,9.1,0,0,0-2.12,4.76l-.94,4.93H510.4Z" fill="#6c757d"/>
</svg>
