<svg id="NextInvoice-logo-13" xmlns="http://www.w3.org/2000/svg" width="109.075" height="17.107" viewBox="0 0 109.075 17.107">
  <path id="Path_10449" data-name="Path 10449" d="M7.443,34.6,8.9,26.349a1.155,1.155,0,0,0,.035-.218v-.2q0-.879-.806-.879H5.711q-1.172,0-1.392,1.317L2.879,34.6H0L2.2,22.08h7.2q2.538,0,2.538,2.684a7.362,7.362,0,0,1-.145,1.392L10.3,34.6Z" transform="translate(0 -17.493)" fill="#707070"/>
  <path id="Path_10450" data-name="Path 10450" d="M64.917,34.59q-3.367,0-3.367-2.979a4.491,4.491,0,0,1,.037-.561q.035-.293.085-.634l.731-4.173q.731-4.173,4.709-4.173h1.953q3.367,0,3.367,2.977a4.572,4.572,0,0,1-.037.561q-.037.293-.085.634l-.561,3.222H64.674l-.145.879c-.017.081-.029.154-.037.22a1.544,1.544,0,0,0-.012.2q0,.879.951.879h5.588l-.513,2.952H64.917Zm4.661-8.417a1.086,1.086,0,0,0,.025-.208v-.183q0-.926-.976-.926h-2a1.228,1.228,0,0,0-.926.33,1.89,1.89,0,0,0-.44.989l-.2,1.024h4.317Z" transform="translate(-48.764 -17.485)" fill="#707070"/>
  <path id="Path_10451" data-name="Path 10451" d="M117.327,34.6l-1.415-4.051L113,34.6H109.93l4.986-6.369-2.366-6.149h3.342l1.415,3.978,2.831-3.978h2.929l-4.778,6.149L120.8,34.6Z" transform="translate(-87.094 -17.493)" fill="#707070"/>
  <path id="Path_10452" data-name="Path 10452" d="M174.657,18.317q-3.147,0-3.147-2.952,0-.293.025-.611a5.678,5.678,0,0,1,.1-.683L173.826,1.53h2.929L176,5.8h2.611l-.438,2.493h-2.613l-1.024,5.881q-.025.123-.037.233a2.061,2.061,0,0,0-.012.233.852.852,0,0,0,.951.976h1.415l-.488,2.7h-1.708Z" transform="translate(-135.882 -1.212)" fill="#707070"/>
  <path id="Path_10453" data-name="Path 10453" d="M204.28,17.1,207.3,0h3.027L207.3,17.1Z" transform="translate(-161.845)" fill="#707070"/>
  <path id="Path_10454" data-name="Path 10454" d="M236.741,34.6l1.454-8.249a1.155,1.155,0,0,0,.025-.22v-.193q0-.879-.806-.879h-2.406q-1.172,0-1.392,1.317l-1.44,8.224H229.3l2.2-12.518h7.2q2.538,0,2.538,2.684a7.362,7.362,0,0,1-.145,1.392L239.6,34.6Z" transform="translate(-181.667 -17.493)" fill="#707070"/>
  <path id="Path_10455" data-name="Path 10455" d="M293.943,34.6,292.26,22.08h3.172l.781,8.442L300,22.08h3.049l-6.1,12.518Z" transform="translate(-231.549 -17.493)" fill="#707070"/>
  <path id="Path_10456" data-name="Path 10456" d="M344.022,34.595a4.121,4.121,0,0,1-2.661-.7,2.723,2.723,0,0,1-.831-2.208,7.544,7.544,0,0,1,.145-1.367l.708-3.978a7.8,7.8,0,0,1,.573-1.94,3.923,3.923,0,0,1,.955-1.327,3.708,3.708,0,0,1,1.4-.756,6.629,6.629,0,0,1,1.89-.245h2.025a4.112,4.112,0,0,1,2.659.7,2.731,2.731,0,0,1,.831,2.208,6.238,6.238,0,0,1-.037.659q-.038.343-.085.708l-.708,3.978a5.737,5.737,0,0,1-1.5,3.209,4.325,4.325,0,0,1-3.116,1.061h-2.252Zm4.684-8.272c.017-.081.029-.154.037-.22a1.613,1.613,0,0,0,.013-.2q0-.854-.9-.854h-2.285a1.224,1.224,0,0,0-1.269,1.172l-.708,4.155c-.017.081-.029.158-.037.233a1.832,1.832,0,0,0-.012.208.745.745,0,0,0,.854.831h2.285a1.236,1.236,0,0,0,1.294-1.172Z" transform="translate(-269.792 -17.49)" fill="#707070"/>
  <path id="Path_10457" data-name="Path 10457" d="M396.682,17.1l2.2-12.518h2.929l-2.2,12.518H396.68Zm2.493-14.178L399.707,0h2.929L402.1,2.929h-2.929Z" transform="translate(-314.278)" fill="#707070"/>
  <path id="Path_10458" data-name="Path 10458" d="M426.957,34.6q-3.367,0-3.367-2.977a4.477,4.477,0,0,1,.037-.561q.035-.293.085-.634l.731-4.126q.731-4.221,4.709-4.221h4.362L433,25.057h-4.288q-1.172,0-1.392,1.342l-.683,3.947c-.017.081-.029.154-.037.22a1.553,1.553,0,0,0-.012.2q0,.879.951.879h4.344l-.513,2.952h-4.414Z" transform="translate(-335.598 -17.493)" fill="#707070"/>
  <path id="Path_10459" data-name="Path 10459" d="M476.057,34.6q-3.367,0-3.367-2.977a4.46,4.46,0,0,1,.037-.561q.035-.293.085-.634l.731-4.173q.731-4.173,4.709-4.173h1.953q3.367,0,3.367,2.977a4.559,4.559,0,0,1-.037.561q-.037.293-.085.634l-.561,3.222h-7.077l-.15.881c-.017.081-.029.154-.037.22a1.547,1.547,0,0,0-.012.2q0,.879.951.879h5.588l-.507,2.95Zm4.661-8.419a1.091,1.091,0,0,0,.025-.208V25.79q0-.926-.976-.926h-2a1.228,1.228,0,0,0-.926.33,1.89,1.89,0,0,0-.44.989l-.2,1.024h4.319Z" transform="translate(-374.498 -17.493)" fill="#707070"/>
</svg>
