<svg xmlns="http://www.w3.org/2000/svg" width="141.989" height="38.728" viewBox="0 0 141.989 38.728">
  <g id="Group_7688" data-name="Group 7688" transform="translate(-32 -12)">
    <g id="Group_7686" data-name="Group 7686" transform="translate(36 -131.543)">
      <g id="Group_7687" data-name="Group 7687" transform="translate(-4)">
        <path id="Path_10558" data-name="Path 10558" d="M9.415,183.253l1.852-10.434a1.451,1.451,0,0,0,.031-.278v-.247q0-1.111-1.019-1.111H7.224q-1.482,0-1.76,1.667l-1.821,10.4H0l2.778-15.837h9.107q3.211,0,3.211,3.4a9.328,9.328,0,0,1-.185,1.76l-1.883,10.681Z" transform="translate(0 -16.28)" fill="#fff"/>
        <path id="Path_10559" data-name="Path 10559" d="M65.815,183.253q-4.26,0-4.26-3.766a5.7,5.7,0,0,1,.046-.71q.046-.37.108-.8l.926-5.279q.926-5.279,5.958-5.279h2.469q4.261,0,4.26,3.767a5.756,5.756,0,0,1-.046.71q-.047.371-.108.8l-.71,4.075H65.506l-.185,1.111c-.021.1-.036.2-.047.277a1.957,1.957,0,0,0-.015.247q0,1.111,1.2,1.111h7.069l-.648,3.735Zm5.9-10.65a1.38,1.38,0,0,0,.031-.263v-.232q0-1.172-1.235-1.173H67.976a1.553,1.553,0,0,0-1.173.417,2.392,2.392,0,0,0-.556,1.25L66,173.9h5.464Z" transform="translate(-45.379 -16.28)" fill="#fff"/>
        <path id="Path_10560" data-name="Path 10560" d="M119.3,183.253l-1.791-5.124-3.673,5.124h-3.89l6.3-8.057-2.995-7.78h4.229l1.79,5.032,3.581-5.032h3.7l-6.05,7.78,3.18,8.057Z" transform="translate(-81.055 -16.28)" fill="#fff"/>
        <path id="Path_10561" data-name="Path 10561" d="M175.484,168.1q-3.982,0-3.982-3.735c0-.247.01-.5.031-.772a7.159,7.159,0,0,1,.124-.864l2.778-15.868h3.7l-.957,5.4h3.3l-.556,3.149h-3.3l-1.3,7.44c-.021.1-.036.2-.046.293a2.613,2.613,0,0,0-.016.294,1.078,1.078,0,0,0,1.2,1.235h1.79l-.617,3.426Z" transform="translate(-126.432 -1.126)" fill="#fff"/>
      </g>
      <path id="Path_10562" data-name="Path 10562" d="M238.71,183.253l1.852-10.434a1.45,1.45,0,0,0,.031-.278v-.247q0-1.111-1.019-1.111h-3.056q-1.482,0-1.76,1.667l-1.821,10.4h-3.643l2.778-15.837h9.107q3.211,0,3.211,3.4a9.329,9.329,0,0,1-.185,1.76l-1.883,10.681Z" transform="translate(-169.037 -16.28)" fill="#fff"/>
      <path id="Path_10563" data-name="Path 10563" d="M294.389,183.253l-2.13-15.837h4.013l.988,10.681,4.785-10.681H305.9l-7.717,15.837Z" transform="translate(-215.454 -16.28)" fill="#fff"/>
      <path id="Path_10564" data-name="Path 10564" d="M344.952,183.253a5.208,5.208,0,0,1-3.365-.88,3.447,3.447,0,0,1-1.049-2.794,9.542,9.542,0,0,1,.185-1.728l.9-5.032a9.865,9.865,0,0,1,.726-2.454,4.962,4.962,0,0,1,1.219-1.682,4.691,4.691,0,0,1,1.775-.957,8.384,8.384,0,0,1,2.392-.309h2.562a5.209,5.209,0,0,1,3.365.88,3.447,3.447,0,0,1,1.05,2.794,7.849,7.849,0,0,1-.046.833q-.047.433-.108.9l-.9,5.032a7.256,7.256,0,0,1-1.9,4.06,5.467,5.467,0,0,1-3.936,1.343Zm5.927-10.465c.02-.1.036-.2.046-.278a2.033,2.033,0,0,0,.016-.247q0-1.08-1.142-1.08h-2.9a1.547,1.547,0,0,0-1.6,1.482l-.9,5.248c-.021.1-.036.2-.046.294a2.326,2.326,0,0,0-.016.262.941.941,0,0,0,1.081,1.049h2.9a1.562,1.562,0,0,0,1.636-1.482Z" transform="translate(-251.046 -16.28)" fill="#fff"/>
      <path id="Path_10565" data-name="Path 10565" d="M396.688,166.973l2.778-15.837h3.7l-2.778,15.837Zm3.148-17.936.68-3.7h3.7l-.679,3.7Z" transform="translate(-292.44 -0.001)" fill="#fff"/>
      <path id="Path_10566" data-name="Path 10566" d="M205.685,183.253l2.778-15.837h3.7l-2.778,15.837Z" transform="translate(-151.632 -16.28)" fill="#fff"/>
      <path id="Path_10567" data-name="Path 10567" d="M223.6,145.332l-.918,5.284h-5.016l.181-1.042c2.5-.633,4.315-2.278,4.475-4.242Z" transform="translate(-161.632 -1.789)" fill="#fff"/>
      <path id="Path_10568" data-name="Path 10568" d="M427.847,183.253q-4.26,0-4.26-3.766a5.7,5.7,0,0,1,.046-.71q.046-.37.108-.8l.926-5.217q.926-5.34,5.958-5.341h5.526l-.648,3.767H430.07q-1.482,0-1.76,1.7l-.864,5c-.021.1-.036.2-.046.277a1.955,1.955,0,0,0-.015.247q0,1.111,1.2,1.111h5.495l-.648,3.735Z" transform="translate(-312.27 -16.28)" fill="#fff"/>
      <path id="Path_10569" data-name="Path 10569" d="M476.948,183.253q-4.26,0-4.26-3.766a5.653,5.653,0,0,1,.046-.71q.046-.37.108-.8l.926-5.279q.926-5.279,5.958-5.279h2.47q4.26,0,4.26,3.767a5.8,5.8,0,0,1-.046.71q-.047.371-.109.8l-.71,4.075h-8.952l-.185,1.111c-.021.1-.036.2-.047.277a1.954,1.954,0,0,0-.015.247q0,1.111,1.2,1.111h7.069l-.648,3.735Zm5.9-10.65a1.362,1.362,0,0,0,.031-.263v-.232q0-1.172-1.235-1.173h-2.531a1.553,1.553,0,0,0-1.173.417,2.39,2.39,0,0,0-.556,1.25l-.247,1.3H482.6Z" transform="translate(-348.467 -16.28)" fill="#fff"/>
    </g>
    <path id="Path_10570" data-name="Path 10570" d="M.72-6.444V0h.765V-2.628h1.4a2.1,2.1,0,0,0,1-.243,1.9,1.9,0,0,0,.734-.68A1.812,1.812,0,0,0,4.9-4.536a1.812,1.812,0,0,0-.274-.986A1.9,1.9,0,0,0,3.888-6.2a2.1,2.1,0,0,0-1-.243ZM2.907-3.357H1.485V-5.715H2.907a1.175,1.175,0,0,1,.635.171,1.227,1.227,0,0,1,.427.441,1.134,1.134,0,0,1,.153.567,1.134,1.134,0,0,1-.153.567,1.227,1.227,0,0,1-.427.441A1.175,1.175,0,0,1,2.907-3.357ZM6.534-6.444V0H7.3V-2.934h3.312V0h.765V-6.444h-.765v2.781H7.3V-6.444Zm8.775,0L12.861,0H13.7l.648-1.773h2.79L17.784,0h.837L16.173-6.444Zm1.566,3.951H14.607l1.116-3.015h.036ZM16.047-9l.621,1.1h.621L16.884-9ZM14.481-6.867v.045h.738l.477-.513h.072l.5.513H17v-.045l-.927-1.044H15.4Zm5.625.423V0h.765V-4.131l-.036-1.242h.036L24.246,0h.792V-6.444h-.765v3.888l.036,1.242h-.036l-3.231-5.13Zm9.72,0V0h.756V-4.1l-.036-1.224h.036L32.688,0h.63l2.106-5.319h.036L35.424-4.1V0h.756V-6.444H35.073L33.021-1.161h-.036L30.933-6.444Zm8.424,0V0h3.726V-.729H39.015V-2.862h2.673v-.72H39.015V-5.715h2.961v-.729ZM40.419-9l.621,1.1h.621l-.4-1.1ZM38.853-6.867v.045h.738l.477-.513h.072l.495.513h.738v-.045l-.927-1.044h-.675Zm4.986.423V0H44.6V-4.1l-.036-1.224H44.6L46.7,0h.63l2.106-5.319h.036L49.437-4.1V0h.756V-6.444H49.086L47.034-1.161H47L44.946-6.444Zm11.142,0V0h.765V-2.934h3.312V0h.765V-6.444h-.765v2.781H55.746V-6.444ZM64.791.144a3.228,3.228,0,0,0,1.683-.45A3.233,3.233,0,0,0,67.662-1.53a3.413,3.413,0,0,0,.432-1.692,3.413,3.413,0,0,0-.432-1.692,3.233,3.233,0,0,0-1.188-1.224,3.228,3.228,0,0,0-1.683-.45,3.228,3.228,0,0,0-1.683.45A3.232,3.232,0,0,0,61.92-4.914a3.413,3.413,0,0,0-.432,1.692A3.413,3.413,0,0,0,61.92-1.53,3.232,3.232,0,0,0,63.108-.306,3.228,3.228,0,0,0,64.791.144Zm0-.729a2.488,2.488,0,0,1-1.274-.338,2.457,2.457,0,0,1-.918-.936,2.727,2.727,0,0,1-.337-1.363A2.727,2.727,0,0,1,62.6-4.586a2.457,2.457,0,0,1,.918-.936,2.488,2.488,0,0,1,1.274-.337,2.488,2.488,0,0,1,1.273.337,2.457,2.457,0,0,1,.918.936,2.727,2.727,0,0,1,.338,1.364,2.727,2.727,0,0,1-.338,1.363,2.457,2.457,0,0,1-.918.936A2.488,2.488,0,0,1,64.791-.585ZM64.926-8.1l-.468,1.143h.666L65.763-8.1Zm6.606,1.656L69.084,0h.837l.648-1.773h2.79L74.007,0h.837L72.4-6.444ZM73.1-2.493H70.83l1.116-3.015h.036Zm5.967-.558V0h1.944a3.5,3.5,0,0,0,1.728-.41,2.818,2.818,0,0,0,1.134-1.139,3.451,3.451,0,0,0,.4-1.674,3.451,3.451,0,0,0-.4-1.674,2.818,2.818,0,0,0-1.134-1.138,3.5,3.5,0,0,0-1.728-.41H79.065v2.8h-.729v.594ZM81.009-.729H79.83V-3.051h1.656v-.594H79.83v-2.07h1.179a2.479,2.479,0,0,1,1.813.657,2.453,2.453,0,0,1,.671,1.836,2.453,2.453,0,0,1-.671,1.836A2.479,2.479,0,0,1,81.009-.729Zm8,.873a3.228,3.228,0,0,0,1.683-.45A3.233,3.233,0,0,0,91.881-1.53a3.413,3.413,0,0,0,.432-1.692,3.361,3.361,0,0,0-.342-1.517,2.89,2.89,0,0,0-1.026-1.138v-.036a2.918,2.918,0,0,0,.5.045.979.979,0,0,0,.711-.229.951.951,0,0,0,.234-.707v-.612h-.612V-6.8a.344.344,0,0,1-.1.274.564.564,0,0,1-.36.086,9.884,9.884,0,0,1-1.3-.081l-.387-.036q-.3-.027-.621-.027a3.228,3.228,0,0,0-1.683.45,3.233,3.233,0,0,0-1.188,1.224,3.413,3.413,0,0,0-.432,1.692,3.413,3.413,0,0,0,.432,1.692A3.233,3.233,0,0,0,87.327-.306,3.228,3.228,0,0,0,89.01.144Zm0-.729a2.488,2.488,0,0,1-1.273-.338,2.457,2.457,0,0,1-.918-.936,2.727,2.727,0,0,1-.338-1.363,2.727,2.727,0,0,1,.338-1.364,2.457,2.457,0,0,1,.918-.936,2.488,2.488,0,0,1,1.273-.337,2.488,2.488,0,0,1,1.273.337,2.457,2.457,0,0,1,.918.936,2.727,2.727,0,0,1,.338,1.364A2.727,2.727,0,0,1,91.2-1.859a2.457,2.457,0,0,1-.918.936A2.488,2.488,0,0,1,89.01-.585Zm5.058-5.859V0h.765V-4.131L94.8-5.373h.036L98.208,0H99V-6.444h-.765v3.888l.036,1.242h-.036L95-6.444Zm9.738,3.393V0h1.944a3.5,3.5,0,0,0,1.728-.41,2.818,2.818,0,0,0,1.134-1.139,3.451,3.451,0,0,0,.4-1.674,3.451,3.451,0,0,0-.4-1.674,2.818,2.818,0,0,0-1.134-1.138,3.5,3.5,0,0,0-1.728-.41h-1.944v2.8h-.729v.594ZM105.75-.729h-1.179V-3.051h1.656v-.594h-1.656v-2.07h1.179a2.479,2.479,0,0,1,1.813.657,2.453,2.453,0,0,1,.671,1.836,2.453,2.453,0,0,1-.671,1.836A2.479,2.479,0,0,1,105.75-.729Zm5.013-5.715V0h.765V-6.444Zm2.835,0V0h3.726V-.729h-2.961V-2.862h2.673v-.72h-2.673V-5.715h2.961v-.729Zm1.863,8.172a.449.449,0,0,0,.342-.144.483.483,0,0,0,.135-.342.462.462,0,0,0-.477-.477.483.483,0,0,0-.342.135.449.449,0,0,0-.144.342.467.467,0,0,0,.144.342A.467.467,0,0,0,115.461,1.728ZM114.21-7.056v.045h.738l.477-.567h.072l.486.567h.738v-.045L115.8-8.1h-.675Zm4.977.612V0h.765V-4.131l-.036-1.242h.036L123.327,0h.792V-6.444h-.765v3.888l.036,1.242h-.036l-3.231-5.13Zm11.043.729V0h.765V-5.715h1.8v-.729h-4.374v.729ZM136.593.144a2.473,2.473,0,0,0,1.269-.315,2.059,2.059,0,0,0,.824-.891,2.959,2.959,0,0,0,.283-1.323V-5.868h.1a.979.979,0,0,0,.711-.229.951.951,0,0,0,.234-.707v-.612H139.4V-6.8q0,.36-.333.36H138.2v4.1a1.894,1.894,0,0,1-.419,1.273,1.481,1.481,0,0,1-1.192.49,1.468,1.468,0,0,1-1.188-.49,1.907,1.907,0,0,1-.414-1.273v-4.1h-.765v4.059a2.819,2.819,0,0,0,.3,1.319,2.181,2.181,0,0,0,.837.891A2.375,2.375,0,0,0,136.593.144Zm-.369-7.461.135.477a1.365,1.365,0,0,0,.7-.346.908.908,0,0,0,.279-.688.762.762,0,0,0-.243-.607,1.009,1.009,0,0,0-.684-.212,1.891,1.891,0,0,0-.8.162l.234.468a1.251,1.251,0,0,1,.5-.108.466.466,0,0,1,.3.086.3.3,0,0,1,.108.247Q136.746-7.488,136.224-7.317Z" transform="translate(32 49)" fill="#fff"/>
  </g>
</svg>
