<svg xmlns="http://www.w3.org/2000/svg" width="54" height="54" viewBox="0 0 54 54">
  <g id="Group_7258" data-name="Group 7258" transform="translate(-876 -303)">
    <g id="Ellipse_55" data-name="Ellipse 55" transform="translate(881 308)" fill="#f2f2f2" stroke="#fff" stroke-width="5">
      <circle cx="22" cy="22" r="22" stroke="none"/>
      <circle cx="22" cy="22" r="24.5" fill="none"/>
    </g>
    <path id="Path_7073" data-name="Path 7073" d="M-2.062-9.013h1.59a2.845,2.845,0,0,0,1.907-.623,2.223,2.223,0,0,0,.7-1.772,2.422,2.422,0,0,0-.585-1.735,2.356,2.356,0,0,0-1.789-.618,2.493,2.493,0,0,0-1.729.607,2.028,2.028,0,0,0-.677,1.584h-2.61a3.951,3.951,0,0,1,.639-2.191A4.294,4.294,0,0,1-2.831-15.3a5.809,5.809,0,0,1,2.562-.553,5.379,5.379,0,0,1,3.679,1.176,4.128,4.128,0,0,1,1.337,3.271,3.324,3.324,0,0,1-.671,1.982,4.21,4.21,0,0,1-1.735,1.4A3.837,3.837,0,0,1,4.3-6.639a3.794,3.794,0,0,1,.671,2.256A4.2,4.2,0,0,1,3.529-1.031,5.61,5.61,0,0,1-.269.215a5.567,5.567,0,0,1-3.7-1.2A3.962,3.962,0,0,1-5.4-4.189h2.61A2.184,2.184,0,0,0-2.1-2.514a2.628,2.628,0,0,0,1.864.645,2.71,2.71,0,0,0,1.912-.645,2.418,2.418,0,0,0,.7-1.869,2.443,2.443,0,0,0-.73-1.9A3.123,3.123,0,0,0-.526-6.95H-2.062Z" transform="translate(903 339)" fill="#fff"/>
  </g>
</svg>
