<svg xmlns="http://www.w3.org/2000/svg" width="54" height="54" viewBox="0 0 54 54">
  <g id="Group_7257" data-name="Group 7257" transform="translate(-645 -303)">
    <g id="Ellipse_54" data-name="Ellipse 54" transform="translate(650 308)" fill="#f2f2f2" stroke="#fff" stroke-width="5">
      <circle cx="22" cy="22" r="22" stroke="none"/>
      <circle cx="22" cy="22" r="24.5" fill="none"/>
    </g>
    <path id="Path_7072" data-name="Path 7072" d="M5.436,0H-5.081V-1.794L.129-7.477a12.974,12.974,0,0,0,1.606-2.1,3.4,3.4,0,0,0,.478-1.692,2.571,2.571,0,0,0-.628-1.8,2.18,2.18,0,0,0-1.692-.687,2.513,2.513,0,0,0-1.966.773,3.042,3.042,0,0,0-.7,2.116h-2.61a5.116,5.116,0,0,1,.65-2.573,4.475,4.475,0,0,1,1.858-1.778,5.915,5.915,0,0,1,2.788-.634,5.291,5.291,0,0,1,3.593,1.144,3.971,3.971,0,0,1,1.316,3.164,5.369,5.369,0,0,1-.661,2.455A13.958,13.958,0,0,1,2-6.177L-1.826-2.084H5.436Z" transform="translate(672 339)" fill="#fff"/>
  </g>
</svg>
