<svg xmlns="http://www.w3.org/2000/svg" width="119" height="119" viewBox="0 0 119 119">
  <g id="Group_7263" data-name="Group 7263" transform="translate(-1102 -355)">
    <g id="Group_7262" data-name="Group 7262">
      <g id="Ellipse_64" data-name="Ellipse 64" transform="translate(1102 355)" fill="#fff" stroke="#77a841" stroke-width="1">
        <circle cx="59.5" cy="59.5" r="59.5" stroke="none"/>
        <circle cx="59.5" cy="59.5" r="59" fill="none"/>
      </g>
    </g>
    <g id="upload_1_" data-name="upload (1)" transform="translate(1128.791 385.884)">
      <path id="Path_7050" data-name="Path 7050" d="M55.377,15.787A20.6,20.6,0,0,0,35.553.413,20.352,20.352,0,0,0,16.861,12.566a13.526,13.526,0,0,0-2.855-.3,14.006,14.006,0,0,0,0,28.012,1.077,1.077,0,0,0,0-2.155,11.851,11.851,0,0,1,0-23.7,11.7,11.7,0,0,1,3.232.452,1.077,1.077,0,0,0,1.3-.647A18.207,18.207,0,0,1,35.553,2.568,18.423,18.423,0,0,1,53.438,16.951a1.077,1.077,0,0,0,.883.83,9.7,9.7,0,1,1-3.469,19.037,1.1,1.1,0,0,0-.431,2.155,11.494,11.494,0,0,0,2.37.227,11.851,11.851,0,0,0,2.586-23.411Zm0,0" transform="translate(0 -0.413)" fill="#77a841"/>
      <path id="Path_7051" data-name="Path 7051" d="M157.088,144.413H137.7a1.076,1.076,0,0,0-.765.3l-8.619,8.619a1.075,1.075,0,0,0-.312.776v25.857a1.077,1.077,0,0,0,1.077,1.077h28.012a1.077,1.077,0,0,0,1.077-1.077v-5.3a1.077,1.077,0,0,0-2.155,0v4.224H130.154v-23.7H137.7a1.077,1.077,0,0,0,1.077-1.077v-7.542h17.238v23.885a1.077,1.077,0,0,0,2.155,0V145.49A1.077,1.077,0,0,0,157.088,144.413Zm-20.47,8.619h-4.945l4.945-4.946Zm0,0" transform="translate(-110.761 -125.02)" fill="#77a841"/>
      <path id="Path_7052" data-name="Path 7052" d="M240.619,224.414h-7.542a1.077,1.077,0,0,0,0,2.155h7.542a1.077,1.077,0,0,0,0-2.155Zm0,0" transform="translate(-200.756 -194.247)" fill="#77a841"/>
      <path id="Path_7053" data-name="Path 7053" d="M192.161,264.414H177.077a1.077,1.077,0,1,0,0,2.155h15.083a1.077,1.077,0,0,0,0-2.155Zm0,0" transform="translate(-152.298 -228.86)" fill="#77a841"/>
      <path id="Path_7054" data-name="Path 7054" d="M192.161,304.414H177.077a1.077,1.077,0,1,0,0,2.155h15.083a1.077,1.077,0,1,0,0-2.155Zm0,0" transform="translate(-152.298 -263.474)" fill="#77a841"/>
      <path id="Path_7055" data-name="Path 7055" d="M192.161,344.414H177.077a1.077,1.077,0,1,0,0,2.155h15.083a1.077,1.077,0,0,0,0-2.155Zm0,0" transform="translate(-152.298 -298.087)" fill="#77a841"/>
      <path id="Path_7056" data-name="Path 7056" d="M4.314,8.625A1.077,1.077,0,0,0,5.391,7.548V3.68l1.39,1.4a1.082,1.082,0,1,0,1.53-1.53L5.079.318a1.078,1.078,0,0,0-1.53,0L.317,3.55a1.082,1.082,0,0,0,1.53,1.53l1.39-1.4V7.548A1.077,1.077,0,0,0,4.314,8.625Zm0,0" transform="translate(39.869 15.084) rotate(180)" fill="#77a841"/>
      <path id="Path_7057" data-name="Path 7057" d="M186.155,83.646V81.491a1.077,1.077,0,1,0-2.155,0v2.155a1.077,1.077,0,0,0,2.155,0Zm0,0" transform="translate(-159.22 -69.64)" fill="#77a841"/>
      <path id="Path_7058" data-name="Path 7058" d="M394.155,173.8v-4.309a1.077,1.077,0,1,0-2.155,0V173.8a1.077,1.077,0,1,0,2.155,0Zm0,0" transform="translate(-339.209 -145.789)" fill="#77a841"/>
      <path id="Path_7059" data-name="Path 7059" d="M88,145.491v6.464a1.077,1.077,0,1,0,2.155,0v-6.464a1.077,1.077,0,1,0-2.155,0Zm0,0" transform="translate(-76.149 -125.021)" fill="#77a841"/>
    </g>
  </g>
</svg>
