<svg id="Layer_1" data-name="Layer 1" xmlns="http://www.w3.org/2000/svg" viewBox="0 0 520.63 138.66"><defs><style>.cls-1{fill:#fff;}</style></defs><title>Nextpay-logo-white-02</title><path class="cls-1" d="M49.69,112.23l9.78-55.07a7.71,7.71,0,0,0,.16-1.47v-1.3q0-5.86-5.38-5.86H38.13q-7.82,0-9.29,8.8l-9.61,54.91H0L14.66,28.65H62.73q16.94,0,16.95,17.92a49.16,49.16,0,0,1-1,9.29l-9.94,56.37H49.69Z"/><path class="cls-1" d="M108.25,112.5q-22.56,0-22.56-19.95a30.33,30.33,0,0,1,.24-3.76q0.25-2,.57-4.25l4.91-28q4.9-28,31.56-28H136q22.57,0,22.57,19.95a30.29,30.29,0,0,1-.24,3.76q-0.25,2-.57,4.25L154,78.16H106.61l-1,5.89q-0.16.82-.24,1.47a10.35,10.35,0,0,0-.08,1.31q0,5.89,6.38,5.89h37.45l-3.43,19.79H108.25Zm31.23-56.41a7.45,7.45,0,0,0,.16-1.39V53.47q0-6.21-6.54-6.21H119.69q-4.09,0-6.21,2.21a12.67,12.67,0,0,0-2.94,6.62L109.23,63h28.94Z"/><path class="cls-1" d="M202.59,112.5l-9.48-27.14L173.65,112.5H153l33.36-42.68L170.54,28.61h22.4l9.48,26.65,19-26.65H241L209,69.82l16.84,42.68H202.59Z"/><path class="cls-1" d="M259.82,112.5q-21.09,0-21.09-19.79,0-2,.16-4.09a38.27,38.27,0,0,1,.65-4.58L254.26,0h19.62l-5.07,28.61h17.5l-2.94,16.68h-17.5L259,84.7c-0.11.55-.19,1.06-0.25,1.55a13.82,13.82,0,0,0-.08,1.55q0,6.54,6.38,6.54h9.48l-3.27,18.15H259.82Z"/><path class="cls-1" d="M279,138.66l19.29-110h39.41q11.44,0,16.84,5.07t5.4,15.37a54.59,54.59,0,0,1-1,9.65l-4.58,26q-4.91,27.8-31.39,27.8H302.83l-4.58,26.16H279Zm60-76.2a43.6,43.6,0,0,0,.82-7.19,7.76,7.76,0,0,0-1.31-4.9q-1.31-1.63-4.9-1.64H314.11l-7.85,44h19.46q8,0,9.48-8.67Z"/><path class="cls-1" d="M382.13,112.5q-17.82,0-17.82-15.86a35,35,0,0,1,.65-6.87l1.31-8.18Q369.37,62,391.12,62h26.65l1-4.74a7.34,7.34,0,0,0,.16-1.39V54.61q0-6-6.54-6.05H377.23l3.43-19.95h35.16q22.4,0,22.4,19.95a30.29,30.29,0,0,1-.24,3.76q-0.25,2-.57,4.25l-9.81,55.92H382.13Zm33-35.48h-24q-6,0-7,6.38l-0.82,4.9a6.83,6.83,0,0,0-.16,1.64q0,4.09,5.07,4.09h24Z"/><path class="cls-1" d="M451.46,138.5l3.27-18.31h22.73q7.52,0,9.32-9.48l1.31-7.19H468.79q-22.73,0-22.73-19.46a45.55,45.55,0,0,1,.82-7.85l8.34-47.58h19.46L466.18,77a13.67,13.67,0,0,0-.33,2.45q0,6.05,6.7,6H491.2l10-56.9h19.46L506.4,109.88Q501.33,138.5,476,138.5H451.46Z"/></svg>