<svg xmlns="http://www.w3.org/2000/svg" xmlns:xlink="http://www.w3.org/1999/xlink" width="151.376" height="40.367" viewBox="0 0 151.376 40.367">
  <defs>
    <linearGradient id="linear-gradient" y1="1" x2="0.968" y2="0.076" gradientUnits="objectBoundingBox">
      <stop offset="0" stop-color="#0b62ab"/>
      <stop offset="1" stop-color="#0b62ab"/>
    </linearGradient>
    <linearGradient id="linear-gradient-2" x1="-0.001" y1="0.499" x2="1.001" y2="0.499" xlink:href="#linear-gradient"/>
    <linearGradient id="linear-gradient-3" x1="0" y1="0.5" x2="0.999" y2="0.5" xlink:href="#linear-gradient"/>
    <linearGradient id="linear-gradient-4" x1="0" y1="0.501" x2="0.997" y2="0.501" xlink:href="#linear-gradient"/>
  </defs>
  <g id="Group_7118" data-name="Group 7118" transform="translate(-208.1 -70.2)">
    <g id="Group_1" data-name="Group 1" transform="translate(208.1 70.2)">
      <path id="Path_6957" data-name="Path 6957" d="M173.087,94.407,175.908,78.4a1.349,1.349,0,0,0,.054-.434v-.38c0-1.139-.543-1.682-1.573-1.682h-4.666c-1.519,0-2.442.868-2.713,2.55l-2.821,15.951H158.6L162.886,70.1h14c3.31,0,4.937,1.736,4.937,5.209a16.985,16.985,0,0,1-.271,2.713l-2.876,16.385h-5.588Z" transform="translate(-158.6 -61.744)" fill="url(#linear-gradient)"/>
      <path id="Path_6973" data-name="Path 6973" d="M211.165,94.515c-4.395,0-6.565-1.953-6.565-5.805a7.641,7.641,0,0,1,.054-1.085c.054-.38.109-.814.163-1.248l1.411-8.138c.977-5.426,4.015-8.138,9.169-8.138h3.8c4.395,0,6.565,1.953,6.565,5.805a7.641,7.641,0,0,1-.054,1.085c-.054.38-.109.814-.163,1.248l-1.085,6.294H210.677l-.271,1.736a1.348,1.348,0,0,0-.054.434v.38c0,1.139.6,1.736,1.845,1.736H223.1l-.977,5.751h-10.96Zm9.061-16.44a1.059,1.059,0,0,0,.054-.38v-.38c0-1.194-.651-1.79-1.9-1.79h-3.906a2.259,2.259,0,0,0-1.79.651,3.635,3.635,0,0,0-.868,1.953l-.38,2.007h8.41Z" transform="translate(-179.642 -61.744)" fill="url(#linear-gradient-2)"/>
      <path id="Path_6974" data-name="Path 6974" d="M255.078,94.515l-2.767-7.921-5.643,7.921H240.7l9.712-12.425L245.8,70.1h6.511l2.767,7.759,5.534-7.759h5.7l-9.332,11.991,4.883,12.425Z" transform="translate(-196.155 -61.744)" fill="url(#linear-gradient-3)"/>
      <path id="Path_6975" data-name="Path 6975" d="M292.731,87.471c-4.069,0-6.131-1.9-6.131-5.751a9.2,9.2,0,0,1,.054-1.194c.054-.434.109-.868.217-1.356l4.286-24.47h5.7L295.39,63h5.1l-.868,4.829h-5.1l-2.008,11.448a1.348,1.348,0,0,0-.054.434v.434a1.655,1.655,0,0,0,1.845,1.9h2.767l-.977,5.263h-3.364Z" transform="translate(-217.152 -54.7)" fill="url(#linear-gradient-4)"/>
      <path id="Path_6976" data-name="Path 6976" d="M308.2,102.111,313.788,70.1h11.448q3.337,0,4.883,1.465a5.92,5.92,0,0,1,1.573,4.449,19.594,19.594,0,0,1-.271,2.821l-1.356,7.542c-.977,5.371-4.015,8.084-9.115,8.084h-5.805l-1.356,7.6H308.2Zm17.416-22.137a11.573,11.573,0,0,0,.217-2.116,2.088,2.088,0,0,0-.38-1.411,1.7,1.7,0,0,0-1.411-.488H318.4l-2.279,12.8h5.643a2.578,2.578,0,0,0,2.767-2.5Z" transform="translate(-227.032 -61.744)" fill="#77a841"/>
      <path id="Path_6977" data-name="Path 6977" d="M359.109,94.561c-3.472,0-5.209-1.519-5.209-4.612a8.135,8.135,0,0,1,.217-2.007l.38-2.387c.6-3.8,3.038-5.7,7.216-5.7h7.759l.271-1.356a1.059,1.059,0,0,0,.054-.38v-.38c0-1.194-.651-1.736-1.9-1.736H357.7l.977-5.805h10.2c4.341,0,6.511,1.953,6.511,5.805a7.637,7.637,0,0,1-.054,1.085c-.054.38-.108.814-.163,1.248l-2.876,16.277H359.109Zm9.6-10.309h-7a1.909,1.909,0,0,0-2.062,1.845l-.217,1.411a1.2,1.2,0,0,0-.054.488c0,.814.488,1.194,1.465,1.194h7Z" transform="translate(-247.937 -61.79)" fill="#77a841"/>
      <path id="Path_6978" data-name="Path 6978" d="M399.319,102.011l.977-5.317h6.619c1.465,0,2.387-.922,2.713-2.767l.38-2.116h-5.589c-4.395,0-6.619-1.9-6.619-5.643a12.307,12.307,0,0,1,.217-2.279l2.442-13.835H406.1l-2.5,14.052a5.7,5.7,0,0,0-.109.705c0,1.194.651,1.736,1.953,1.736h5.426L413.751,70h5.643l-4.124,23.656c-.977,5.534-3.906,8.3-8.844,8.3h-7.108Z" transform="translate(-268.018 -61.699)" fill="#77a841"/>
    </g>
  </g>
</svg>
