<svg xmlns="http://www.w3.org/2000/svg" width="14.808" height="14.808" viewBox="0 0 14.808 14.808">
  <g id="tomtat" transform="translate(0 -0.009)">
    <g id="Group_41351" data-name="Group 41351" transform="translate(0 6.381)">
      <g id="Group_41350" data-name="Group 41350" transform="translate(0)">
        <path id="Path_12962" data-name="Path 12962" d="M14.576,206.248a.515.515,0,0,0-.046-.028l-1.051-.566-5.828,3.085a.529.529,0,0,1-.495,0l-5.827-3.085-1.051.566a.524.524,0,0,0-.217.708.53.53,0,0,0,.028.046L7.4,210.847l7.315-3.873A.524.524,0,0,0,14.576,206.248Z" transform="translate(0 -205.654)" fill="#3e4348"/>
      </g>
    </g>
    <g id="Group_41353" data-name="Group 41353" transform="translate(0 9.554)">
      <g id="Group_41352" data-name="Group 41352">
        <path id="Path_12963" data-name="Path 12963" d="M14.758,308.834a.529.529,0,0,0-.214-.214l-1.051-.566-5.828,3.085a.529.529,0,0,1-.495,0l-5.828-3.085-1.051.566a.529.529,0,0,0,0,.931l6.875,3.7a.529.529,0,0,0,.5,0l6.875-3.7A.529.529,0,0,0,14.758,308.834Z" transform="translate(-0.014 -308.054)" fill="#3e4348"/>
      </g>
    </g>
    <g id="Group_41355" data-name="Group 41355" transform="translate(0 0.009)">
      <g id="Group_41354" data-name="Group 41354" transform="translate(0 0)">
        <path id="Path_12964" data-name="Path 12964" d="M14.576,3.8a.524.524,0,0,0-.046-.028L7.654.072a.529.529,0,0,0-.5,0L.278,3.774a.524.524,0,0,0-.217.708C.069,4.5,2.079,5.513,2.089,5.528L7.4,8.4l7.315-3.873A.524.524,0,0,0,14.576,3.8Z" transform="translate(0 -0.009)" fill="#3e4348"/>
      </g>
    </g>
  </g>
</svg>
