<svg xmlns="http://www.w3.org/2000/svg" width="11.846" height="14.808" viewBox="0 0 11.846 14.808">
  <g id="xemhd" transform="translate(-7)">
    <path id="Path_12968" data-name="Path 12968" d="M16.773,1.5h-7.7A2.075,2.075,0,0,0,7,3.573v8.885a2.075,2.075,0,0,0,2.073,2.073h7.7a2.075,2.075,0,0,0,2.073-2.073V3.573A2.075,2.075,0,0,0,16.773,1.5Zm-1.312,9.477H10.385a.888.888,0,1,1,0-1.777h5.077a.888.888,0,1,1,0,1.777ZM13.346,7.423H10.385a.888.888,0,0,1,0-1.777h2.962a.888.888,0,0,1,0,1.777Z" transform="translate(0 0.277)" fill="#3e4348"/>
    <path id="Path_12969" data-name="Path 12969" d="M13.638,3.554a.889.889,0,0,1-.888-.888V.888a.888.888,0,0,1,1.777,0V2.665A.889.889,0,0,1,13.638,3.554Z" transform="translate(1.062)" fill="#3e4348"/>
    <path id="Path_12970" data-name="Path 12970" d="M10.638,3.554a.889.889,0,0,1-.888-.888V.888a.888.888,0,0,1,1.777,0V2.665A.889.889,0,0,1,10.638,3.554Z" transform="translate(0.508)" fill="#3e4348"/>
  </g>
</svg>
